<svg xmlns="http://www.w3.org/2000/svg" viewBox="0 0 149.58 166.55"><title>journi_logo_reduced_black_svg</title><g id="Camada_2" data-name="Camada 2"><g id="Camada_4" data-name="Camada 4"><path d="M129.52,50.1A67.7,67.7,0,0,0,81.35,30.23a5.66,5.66,0,0,1,.27,4.35c35.18-1.3,64.69,29,63.61,63.81-1,32.14-27.82,59.92-61.4,59.86-33.3-.06-60.27-27.47-61.19-60.13A61.64,61.64,0,0,1,37,57.09h-.21A5.47,5.47,0,0,1,35.57,57a4.82,4.82,0,0,1-2.51.66,4.52,4.52,0,0,1-4.25-2.53,68.15,68.15,0,0,0,100.9,91.4,68.17,68.17,0,0,0-.19-96.4Z"/><path d="M79.91,53v3.69a2.1,2.1,0,0,0,1.71,2.13,2,2,0,0,0,2.29-2v-4a2,2,0,0,0-2.29-2A2.11,2.11,0,0,0,79.91,53Z"/><path d="M115.26,64.55a2.18,2.18,0,0,0-2.65-.33L72.1,88.32l0,0-.15.1-.06,0-.18.17a1.45,1.45,0,0,0-.17.19l0,0-.11.16,0,0-24.1,40.5a2.18,2.18,0,0,0,.34,2.65,2.16,2.16,0,0,0,2.65.33l40.5-24.09,0,0,.16-.11,0,0a1.37,1.37,0,0,0,.18-.16l.18-.19,0-.06a.91.91,0,0,0,.11-.16l0,0,24.1-40.51A2.18,2.18,0,0,0,115.26,64.55Zm-59.9,59.9L73.65,93.7,86.1,106.16Zm33.82-21.37L76.73,90.63l30.74-18.29Z"/><path d="M79.91,140.05v3.7a2.1,2.1,0,0,0,1.71,2.13,2,2,0,0,0,2.29-2v-4a2,2,0,0,0-2.29-2A2.1,2.1,0,0,0,79.91,140.05Z"/><path d="M126.93,96h-3.85A2.11,2.11,0,0,0,121,97.71a2,2,0,0,0,2,2.29h3.84a2.11,2.11,0,0,0,2.13-1.71A2,2,0,0,0,126.93,96Z"/><path d="M39.91,96H36.06a2.11,2.11,0,0,0-2.13,1.71,2,2,0,0,0,2,2.29h3.85a2.11,2.11,0,0,0,2.13-1.71A2,2,0,0,0,39.91,96Z"/><path d="M115.26,138.14a52.2,52.2,0,1,1-60.5-84.62l-.34,0a5,5,0,0,1-2.24-.5,5.24,5.24,0,0,1-1.58.23,5,5,0,0,1-2.44-.59,56.54,56.54,0,1,0,69.92,88.78,2.18,2.18,0,1,0-2.82-3.32Z"/><path d="M81.42,41.83c-1.19,0-2.36.07-3.52.15a1.52,1.52,0,0,1-1,2.36,1.38,1.38,0,0,1-.89.29H75.9a1.41,1.41,0,0,1-1.43,1.59,1.45,1.45,0,0,1-1.4-1.88A1.45,1.45,0,0,1,72,42.67c-1.45.25-2.89.52-4.3.88a4.52,4.52,0,0,1-3.78,3.21l-.12.08A4.56,4.56,0,0,1,62,48.9a5,5,0,0,1-.59,1.28,52.2,52.2,0,0,1,59.74,82.06,2.17,2.17,0,0,0,3.31,2.82A56.56,56.56,0,0,0,81.42,41.83Z"/></g><g id="Camada_1-2" data-name="Camada 1"><path d="M88.17,0,35.87.2a1.37,1.37,0,0,0-1,.47L21.28,15.94a1.4,1.4,0,0,0,2.1,1.86L36.51,3l19-.07,4.4,9.73a59.46,59.46,0,0,0-17,3.76l-.08,0A59.81,59.81,0,0,0,27.24,28.28a49.32,49.32,0,0,0-7.34,9.88,1.45,1.45,0,0,0-.17.84l-15,.06,14-15.82a1.46,1.46,0,0,0-2.19-1.94L.37,39.56a1.48,1.48,0,0,0-.24,1.58A1.46,1.46,0,0,0,1.47,42L21,41.92l2.86,6.32a1.44,1.44,0,0,0,2.63-1.19L23.27,39.9h0L22.86,39a46.75,46.75,0,0,1,6.53-8.66A58.38,58.38,0,0,1,44.08,19.15,58,58,0,0,1,61.2,15.56l5.92,13.11a5.11,5.11,0,0,0,3.51,9l.17,2.85c-5.55,3.75-9.67,7.33-12.26,10.65-9.69-.57-23.32,4.19-27.57,5.78l-1.67-3.7a1.45,1.45,0,0,0-2.64,1.2l2.24,4.94a1.44,1.44,0,0,0,1.85.75c.18-.07,17.68-7,28.33-6a1.54,1.54,0,0,0,.74-.12,1.52,1.52,0,0,0,.57-.47C62.5,50.6,66.15,47.29,71,43.87l.15,2.4a1.46,1.46,0,0,0,.7,1.16,1.44,1.44,0,0,0,1.34.07l6.68-3a1.43,1.43,0,0,0,.83-1.06,1.48,1.48,0,0,0-.4-1.28l-2.61-2.6c3.4-2,5.9-3.3,5.93-3.32a1.45,1.45,0,0,0,.67-1.89l-2.24-4.94a1.45,1.45,0,0,0-2.64,1.19l1.68,3.7c-1.2.64-3.17,1.73-5.52,3.15L74.18,36a5.11,5.11,0,0,0-4.42-8.57l-5.42-12a46.54,46.54,0,0,1,8.64.84l.42.93h0l3.23,7.15a1.45,1.45,0,0,0,2.64-1.2l-2.86-6.31L89.26,2.41A1.46,1.46,0,0,0,89.5.85,1.46,1.46,0,0,0,88.17,0ZM74,43.67l-.28-4.42,3.14,3.13Zm-1.44-12.4a2.23,2.23,0,1,1-3-1.11A2.23,2.23,0,0,1,72.52,31.27Zm2.57-17.2a1.51,1.51,0,0,0-.75-.42,48.87,48.87,0,0,0-11.29-1L58.71,3,85,2.9Z"/></g></g></svg>